<svg
    xmlns="http://www.w3.org/2000/svg"
    class="social_media_svg"
    pointer-events="bounding-box"
    viewBox="0 0 28.188 28.195"
>
    <path
        d="M28.187 7.195c-.001-.867-.076-1.728-.282-2.574-.372-1.536-1.247-2.713-2.561-3.573A5.9 5.9 0 0 0 23.14.193a12.5 12.5 0 0 0-1.838-.177q-.073-.005-.146-.014H7.032l-.534.03c-.878.05-1.75.146-2.575.472C2.351 1.126 1.219 2.21.555 3.768.33 4.296.212 4.856.129 5.423q-.1.69-.118 1.387c-.001.036-.009.072-.012.108v14.359l.03.498c.059.957.181 1.908.584 2.787.764 1.668 2.041 2.764 3.799 3.291.495.149 1.005.22 1.519.268a21 21 0 0 0 1.957.072q6.479 0 12.957-.002.925 0 1.844-.116c.967-.124 1.876-.412 2.697-.952a5.9 5.9 0 0 0 2.208-2.594c.219-.495.344-1.021.434-1.555.134-.793.163-1.595.162-2.397-.002-4.461.001-8.921-.003-13.382m-7.545 4.687q.001 3.356-.001 6.71c0 .49-.067.971-.285 1.417-.339.694-.894 1.13-1.63 1.339q-.615.175-1.256.203a2.193 2.193 0 0 1-2.284-1.804 2.21 2.21 0 0 1 1.221-2.374c.38-.188.786-.293 1.196-.381.444-.096.89-.18 1.332-.282.322-.074.537-.271.6-.606q.022-.112.021-.227.002-3.198-.001-6.394a1 1 0 0 0-.03-.217c-.046-.177-.175-.285-.357-.275a4 4 0 0 0-.558.078q-1.34.266-2.677.537l-2.734.552-1.614.326q-.029.007-.056.015c-.325.09-.443.239-.458.575q-.002.076-.001.154 0 4.585-.002 9.168c0 .494-.055.982-.253 1.441-.327.754-.905 1.223-1.685 1.45a5.2 5.2 0 0 1-1.263.202c-1.126.042-2.061-.706-2.254-1.814-.167-.955.27-1.98 1.354-2.439.419-.176.859-.273 1.301-.365.337-.071.675-.135 1.011-.207q.674-.149.703-.839.002-.088.001-.177 0-5.216.002-10.432c0-.145.015-.294.049-.435.082-.335.321-.526.641-.609.3-.078.605-.132.909-.194l2.583-.52 2.669-.539c.786-.159 1.572-.32 2.36-.475.258-.051.52-.103.78-.124.364-.029.614.2.651.566q.014.13.014.263.003 3.367.001 6.733"></path>
</svg>