<?xml version="1.0" encoding="utf-8"?>
<!-- Generator: Adobe Illustrator 27.5.0, SVG Export Plug-In . SVG Version: 6.00 Build 0)  -->
<svg version="1.1" id="Layer_1" xmlns="http://www.w3.org/2000/svg"
	xmlns:xlink="http://www.w3.org/1999/xlink" x="0px" y="0px"
	viewBox="0 0 1200 200" style="enable-background:new 0 0 1200 200;" xml:space="preserve">
<path style="fill:#070707;" d="M1140.701,48.498l-1.046-0.083c-0.085,0.791-1.571,0.22-4.162,0.332
	c0.346,0.692-0.823,1.022-2.777,1.164c-1.708-0.366-3.406-0.736-5.554-0.997l-0.348,0.246l-1.038-0.081
	c-0.045,0.897,3.798,0.86,2.778,1.992c-0.719,0.438-2.756,0.561-3.475,0.997c2.983,0.549,0.455,2.88-2.779,2.991
	c-4.645-0.669-5.48,0.859-11.107,0.5c-0.514,0.971,1.773,1.797,3.473,1.327c-1.637-0.047,0.064-0.622,0.694-0.666
	c3.9-0.156,3.9,0.62,5.554,0.998c-1.786,0.402-1.802,1.228-4.168,1.493c3.627,1.078-3.197,2.113-4.858,2.99
	c-1.696-0.426-2.923-0.962-4.164-1.496c-3.846-0.034-7.502-0.023-9.717,0.334c-0.421,0.294,2.031,0.688,0,0.829
	c-5.212-0.165-8.424-1.025-13.885-0.663c-1.385-0.167-1.095-0.735-3.472-0.664c-1.725-0.026-2.147,0.26-3.469,0.331
	c-0.495,0.413,3.053,0.683,0.694,0.996c-2.289-0.006-1.198-0.821-4.167-0.663c0.69-0.94-2.324-0.995-1.389-1.994
	c-3.443-0.313-4.744-0.104-6.25-0.831c-1.887-0.122-1.395,0.33-2.776,0.332l0.351,0.167l-0.351,0.164
	c0.039,0.935,3.009,1.164,2.776,2.161c2.001,0.02,4.553-0.09,5.557,0.166c-1.186,1.018,1.335,2.951-1.388,3.654
	c-2.506-0.271-3.364,0.028-5.551-0.166c-1.499,0.651,0.135,1.203,0.695,1.826c-2.612,0.75,2.203,2.075-3.473,2.492
	c-2.205-1.023-4.755-1.964-8.334-2.658l-0.346,0.249l-1.038-0.083c-6.082,0.398-10.269,0.19-15.967,0c0-0.111,0-0.221,0-0.332
	c2.535-0.666,7.355-0.787,7.63-1.993c-2.099,0.06-1.438-0.542-2.075-0.83c0.919,0,1.847,0,2.775,0
	c0.965-0.926,0.443-1.399-0.701-2.159c3.811,0.301,2.201-0.693,4.862-0.666c2.374-0.125,0.881,0.675,3.475,0.499
	c5.428-0.791-1.388-2.561,3.467-3.487c-1.208,0.012-2.161-0.038-2.778-0.167l-1.041,0.084l0.352-0.249
	c-3.432-0.086-4.906-0.484-8.337-0.168c-4.721-0.804-0.835-2.74-3.469-4.316c-0.484-0.292-1.665-0.396-2.083-0.665
	c-0.675-0.432,0.059-1.049-2.078-1.327l-0.35,0.248l-1.04-0.082c-1.46,0.632,0.67,0.969,0.694,1.493
	c0.023,0.492-2.081,1.829-2.081,1.827c0.576,0.621,4.325,0.668,3.469,1.495c-1.014,0.978-6.726,0.993-12.493,1.327
	c0.151-0.534-1.231-0.701-0.696-1.327c0.821-0.192,2.453-0.188,4.161-0.165c0.051-1.131-4.087-2.236-7.64-1.496
	c-4.372,0.106-4.337-0.846-7.629-0.997c-0.886,0.009-0.958,0.214-2.089,0.168c-1.32,0.566,0.509,1.89-3.46,1.826
	c-0.161-0.295,0.693-0.831-1.394-0.666c-4.266,0.594,0.718,2.38-5.555,2.493c-3.624-0.46-8.755-0.564-11.1-1.328
	c2.199-0.586,0.399-0.772,0-1.496c1.308,0.036,1.525-0.188,2.776-0.166c0.052-0.753,2.639-1.241,3.466-1.993
	c-0.014,0.019-0.966-0.27-0.695-0.498c1.317-1.086,0.26-2.046,2.085-2.989c2.065,0.447,4.228-0.091,4.862-0.496
	c1.465,0.313,4.441,0.263,4.161,0.993c-2.808,0.044-4.291,1.717-0.698,1.83c4.307-1.186,8.906-2.302,14.586-3.156
	c-4.309-0.723-9.589-1.204-15.274-1.163c-0.069,0.26,0.089,0.577-1.395,0.497c-0.658-0.308,2.083-0.555,0-0.664
	c0.706,0.502-1.542,0.294-2.775,0.333c-2.294-0.271-3.286-0.648-1.385-1.162c-3.954,0.065-10.881,0.769-11.799-0.333
	c4.507,0.045,4.005-1.867,2.77-2.657l-1.042,0.084l-1.041-0.084c-1.495,0.363-4.271,0.418-6.244,0.666
	c-4.567-0.68-10.716-0.98-14.579-1.827c-1.962,0.085-2.945,0.4-4.863,0.497c-1.971-0.357-5.223-0.727-8.325-0.332l-0.906,0.215
	c-0.539-0.087-1.023-0.129-1.522-0.187l1.04-0.193c-1.161-0.421-2.723-0.743-1.39-1.331c-1.333-0.32-2.793,0.175-4.859,0.168
	c-0.543,1.126,1.455,1.643,5.548,1.659c0,0.167,0.572,0.202,0.701,0.332c-4.312-0.078,0.643,1.032-2.776,1.165
	c-2.214,0.141-2.145-0.263-3.472-0.334c-0.696,0.222-1.145,0.502-2.081,0.665c-0.766-0.425-3.729-0.326-6.248-0.33l0.346,0.247
	l-1.041-0.082c-0.388,0.406-2.682,0.352-2.079,0.995c1.691,0.411,3.006-0.121,5.553,0c0.039,0.102,0.102,0.199,0.692,0.166
	l1.04-0.082l1.042,0.082c2.393-0.324,8.531-0.601,9.719,0.167c-2.586,3.131-12.06,0.491-15.967,2.658
	c1.991,0.375,4.824-0.308,5.555,0.499c-1.367,0.346-0.53,1.102,0,1.492l1.273-0.083c0,0,0.808,0.248,3.588-0.58
	c1.224,0.15,2.026,0.4,3.467,0.498c-2.215-0.034-3.601,0.254-6.247,0.329l-1.042,0.086l-1.039-0.086
	c-1.051,0.857-3.159,1.462-6.946,1.664l0.351,0.249l0.343,0.249c0,0.166,0.566,0.198,0.696,0.331
	c-0.962,0.269-3.305,0.206-2.776,0.831c1.653,0.747,7.555-0.169,4.161-0.5l-1.038-0.083c0.194-0.109,0.27-0.221,0.348-0.331
	l0.69,0.083c2.468,0.326,2.526-0.216,5.558-0.167c5.166,0.671,1.458,2.368-2.083,2.823c-1.485-0.308-1.251-1.029-3.475-1.162
	c0.148,0.478-0.173,0.843-1.385,0.996c-4.076,0.146-6.296-0.155-6.94-0.829c-4.922,0.041-4.633,1.328-8.33,1.66
	c-2.855-0.369-0.734-1.929-1.389-2.825c-2.049,0.239-4.566,0.547-6.247,0c0,0.223,0,0.444,0,0.666
	c-6.063,0.654-9.203,2.005-16.664,2.325c-6.339-0.755-12.165,0.53-18.742-0.166c0,0.332,0,0.663,0,0.995l1.042-0.083l0.346,0.249
	c2.255,0.534,0.391,2.379-4.86,2.16c-1.235,0.533-2.085,1.162-4.161,1.494c-9.048-0.051-18.709-2.584-9.717-3.985l-1.047-0.195
	l0.348-0.303c-3.367,0.311-4.702,0.009-5.552-0.664c-0.351,0.413-1.314,0.682-2.085,0.996l0.351,0.305
	c-1.116-0.088-2.345-0.168-3.058-0.084c-1.231,0.2-1.218,0.538-1.11,0.857l-1.039-0.083c-0.416,0.297,2.037,0.69,0,0.831
	c-2.869-0.368-4.909-0.929-6.248-1.661c2.096-0.108,4.006-0.259,4.164-0.829c-4.12-1.466-10.925-0.859-17.355-0.999
	c-0.124-0.54,1.633-0.798-1.389-0.829c-1.43,0.046-0.651,0.618-2.083,0.664c-5.152-0.318-6.046,1.742-9.026,2.492
	c-4.836-0.019-3.407-0.972-4.162-1.661c-4.371,0.228-4.004,1.588-6.246,2.325c-1.64-0.245-1.298-0.351-3.472-0.165
	c-1.013,0.854-4.714,1.912-1.386,2.822c-1.697,0.655-4.395,0.046-5.561,0.832c-0.994-0.704-4.236-0.868-5.552-1.497
	c-0.718,0.437-0.558,1.085-3.472,0.999c1.229-1.2,0.32-1.697-4.163-2.161c-1.983-0.204-5.95,0.41-6.249-0.497
	c0.65-0.399,2.791-0.441,2.088-1.164c-4.762,0.604-4.082-1.132-9.027-0.994c-1.625,0.594,1.66,1.194,2.776,1.661
	c-1.585-0.047-2.609,0.038-2.776,0.332c1.773,0.018,1.377,0.554,1.389,0.994c-3.788,0.206-4.436,2.355-9.719,1.163
	c0.983,1.407-9.107,2.143-11.11,0.83c-4.182-0.003-7.144,0.283-11.799,0.167c-0.449-0.501-1.084-0.957-3.472-0.997
	c-0.232,0.388-0.714,0.716-2.079,0.83c-4.153-0.956-6.344-1.438-11.804-2.157l-0.347,0.247l-1.044-0.083
	c-0.381,0.664-0.381,0.501,0,1.163c-3.423-0.154-1.301,1.018-5.549,0.666c-1.569-0.361,0.568-0.568,0-1.163
	c-4.27-0.952-6.329-3.2-9.722-3.82c-0.792-0.689,1.462-0.649,1.389-1.164c-1.675-0.068-1.509,0.303-3.472,0.165
	c-0.039-0.1-0.102-0.195-0.695-0.165l-0.346,0.249l-0.347-0.249c-1.443,0.097-2.243,0.348-3.471,0.498
	c-2.335-0.871-4.349-0.168-7.635,0c-0.059-0.927,0.354-1.967-2.085-2.325c0.673,0.716-2.704,0.461-3.468,0.832
	c1.353,0.805-1.879,2.41-0.692,3.154c-3.049-0.174-2.282,0.563-4.866,0.499c-2.319-0.606-2.668-1.688-6.245-1.994
	c-0.571,1.061-0.073,2.984-4.857,3.489c-5.744-0.469-3.444-1.47-4.167-2.326l-1.041,0.083l0.348-0.247
	c-3.619-0.018-6.605-0.035-8.33-0.832h-0.694v-0.168c-1.554,0.294-1.648,0.936-3.472,1.163v0.166l-2.43-0.415l1.045,0.086
	c-1.126-1.015-7.521-0.059-11.11-0.666c-0.297,0.781,2.06,1.583-1.388,1.825c-3.125-1.535-5.929-2.329-13.886-2.491
	c-0.894,0.45-1.701,0.923-1.39,1.661c3.718,0.671,8.949,1.961,8.335,2.656c3.108-0.305,7.518-0.302,9.718-0.83
	c0.906,0.448,2.21,0.801,4.161,0.997c-0.492,0.491-0.187,1.173-2.078,1.33c-2.153-0.042-2.698-0.464-4.166-0.666
	c-2.2-0.027-2.322,0.444-4.861,0.332c-6.873-0.844-14.905-1.416-17.353-3.32c1.227-0.038,3.479,0.168,2.778-0.334
	c-2.35-0.602-6.784-0.702-8.33-1.495l-0.812,0.25l-1.272-0.083c-0.241,0.717-1.861,1.104-4.858,1.162
	c-0.043-0.102-0.105-0.196-0.695-0.166l-0.347,0.248l-1.04-0.082c-3.383,0.316,1.625,0.451,0.694,1.163
	c-0.895,0.228-3.018,0.162-4.86,0.167c-1.998-0.909-1.13-2.497-6.247-2.659c-1.516,0.525-1.671,1.372-2.084,2.159
	c-1.71-0.02-3.346-0.024-4.168,0.168c-0.861,0.979,0.714,1.445,0,1.992c-1.465-0.535-4.476-0.702-6.939-0.998
	c-2.822-0.762-4.787-1.731-9.716-1.992c0.54,0.978,2.934,2.516,0,3.321c-0.93,0-1.852,0-2.781,0
	c-2.096,1.141-8.53,2.316-13.187,0.996c2.415-0.307,4.765-0.629,5.553-1.327c-0.973-0.043-0.793-0.365-1.39-0.499
	c-4.009,0.164-7.315,0.753-11.101,0.499c-0.042-0.103-0.103-0.198-0.696-0.168l-1.039,0.083l0.343-0.25
	c-2.501,0.566-6.645,0.737-11.799,0.665l0.345,0.306c-0.924-0.054-1.851-0.071-2.775-0.111l1.037-0.194
	c-0.164-1.011-5.302-0.834-7.635-1.329c0-0.111,0-0.221,0-0.331l-1.27,0.085l-0.812-0.25c-1.04-0.118-0.62-0.289-2.082-0.332
	c-1.116-0.036-5.088,0.035-6.944,0.167c-0.153,0.01-0.716,0.434-1.386,0.496c-5.943,0.56-14.052,0.194-18.743,0v0.166h-0.695
	c-4.582,0.977-15.967,0.984-21.522,0.168c-0.048-0.895-8.118-2.461-4.163-3.821c-2.676-0.025-3.257-0.549-2.776-1.327
	c-4.09-0.132-9.029-1.556-12.495-0.332c3.062,0.106,0.759,0.982,1.386,1.492c0.44,0.361,2.044,0.453,2.08,0.833
	c0.067,0.658-1.977,1.091-2.773,1.825c-0.773,0.712,1.362,1.636-2.081,1.993c-0.823-0.191-2.455-0.188-4.168-0.167
	c-3.514-0.983-2.718-3.001-9.024-3.318c-0.086,0.683,1.207,1.039,0.696,1.826c-1.314-0.038-1.535,0.186-2.777,0.167
	c-0.04,0.616,0.698,1.049,1.388,1.493c-2.915,0.953-7.081,1.319-11.802,1.163c-0.116,0.247,0.247,0.614-0.693,0.666
	c-6.759,0.331-4.279-1.805-10.414-1.829c-1.586-0.005-1.958,0.815-5.559,0.498c0.119,0.58-0.178,1.063-1.384,1.33
	c-1.65,0.115-3.309,0.257-4.858,0l-1.038-0.083l0.347-0.251c-0.463,0-0.926,0-1.389,0c-0.705-0.441-1.146-0.944-3.474-0.996
	c-1.028,0.087-1.745,0.245-2.773,0.333c0.498,0.747-0.229,0.829,0.69,1.329c-1.96-0.139-1.796,0.234-3.469,0.165
	c-2.591-0.876-6.838-1.353-6.94-2.824c1.365-0.226,3.962-0.157,5.554-0.332c0.561,0.31,0.896,0.672,2.08,0.831
	c4.88-0.512,6.841-1.037,11.801-0.831c-0.892-0.948-4.121-1.338-4.859-2.321c-2.686,0.086-3.39-0.299-6.251-0.168l0.35,0.249
	l-4.797-0.966c-1.248-0.27-2.503-0.537-3.878-0.779h1.384c-2.807-0.824-5.184-1.746-11.802-1.662
	c-0.792,1.022,4.668,0.546,4.863,1.329c-1.423,0.629-4.144-0.025-6.248,0.497c-0.881,1.109-0.423,1.846,3.469,2.159
	c-1.643,0.798-0.605,1.351-0.692,2.324c1.721,0.309,5.234,0.188,5.552,0.831c-2.243,0.295-4.351,0.62-6.245,0.997
	c0.528-0.853-2.817-0.875-1.391-1.494c-4.8-0.097-4.961,0.914-9.026,0.995c-6.296-1.096-15.093-1.592-14.576-4.315
	c-1.296-0.025-2.32-0.111-2.776-0.333c0.567-0.53,0.444-1.225,1.389-1.662c-2.863,0.132-1.302-0.793-4.166-0.663
	c-3.917,0.952-11.529,0.461-17.355,0.995c-0.222,1.389-3.207,2.111-6.251,2.823c-2.388-0.48-5.175-0.864-9.021-0.996
	c-1.946,0.848-6.293,0.129-10.415,0.498c0.005-0.166-0.561-0.198-0.694-0.331c0.646-0.855,0.528-1.551-0.695-2.325
	c-3.046-0.161-4.843,0.036-7.633,0.166c2.325,0.521-1.865,0.985,0,1.496c-2.338,0.269-4.682,0.54-6.943,0.828
	c-1.736,0.029-2.171-0.255-2.776-0.495c1.494-1.854-3.254-2.213-4.861-3.325c-3.654-0.207-4.117,0.346-6.94,0.334
	c0,0.386,0,0.773,0,1.161c-11.453-0.17-15.281,2.293-17.357,3.82c-2.924-0.185-6.193-0.288-9.021-0.497
	c-2.087,0.219-3.299,0.65-2.779,1.492c-8.388,1.689-14.021-0.568-16.659-2.156c4.353-0.009,2.14-1.593,4.856-1.994
	c3.087,0.378,5.731,0.838,9.028,0.333c0.076-2.096-11.581-2.873-18.744-2.158c-7.165,0.562-15.848,0.051-21.52,0.332
	c0.607-0.536-1.803-0.345-2.082-0.666c-7.806,0.16-14.438,1.347-21.522,0.832c-3.274,1.018-10.432,1.126-14.577,1.161
	c1.141-0.723,6.489-0.441,5.553-1.659c-3.058-0.316-7.72-0.532-9.721,0.164l0.352,0.252l-1.042,0.082
	c2.404,1.534-5.083,1.093-9.72,1.327c-0.445-0.722-3.609-0.797-4.164-1.493c-2.071,0.217-4.634,0.007-5.558-0.498
	c6.63-0.022-1.444-2.347,2.782-2.824l-0.348-0.165l0.348-0.169c-4.52-0.27-0.939-1.45-2.782-2.321
	c-5.792-0.272-11.251-1.842-17.35-0.999c2.025,3.571,10.34,5.443,14.58,8.803c-5.081,0.453-10.942-0.188-15.275,0.333
	c0.85,1.125,5.185,1.417,7.635,2.159c-2.854,0.919-10.697,0.65-14.577,1.326c-2.73-0.43,0.529-0.764-0.691-1.16
	c-3.895-0.395-5.248,0.269-7.639,0.665c1.885,1.141,2.017,2.64-3.471,2.823c0.3,0.368,1.596,0.899-0.695,0.996
	c-3.102-0.198-5.938-0.46-9.026-0.665c0.041-0.21,0.893-0.228,0.698-0.497c-5.636-0.314-9.826-0.971-9.723-2.657
	c-2.535-0.11-2.663,0.359-4.853,0.331c-0.728-0.38-0.442-1.002-1.391-1.328c-3.493,0.115-4.838-0.283-8.328-0.165
	c-4.972,0.704-0.085,2.371-2.783,3.155c-0.088-0.015-0.194-0.027-0.289-0.041v32.328h787.875h5.374h99.235h4.827h2.557h12.687
	h29.401h23.784h68.868h4.507h44.41v-42.464l-0.194-0.037l0.194,0.013v-1.28c-0.118-0.044-0.232-0.089-0.309-0.143L1140.701,48.498z
	"/>

</svg>